<svg width="106" height="19" viewBox="0 0 106 19" fill="none" xmlns="http://www.w3.org/2000/svg">
<g style="mix-blend-mode:darken">
<path d="M15.4961 9.85547C15.4961 11.5352 15.1992 13.0078 14.6055 14.2734C14.0117 15.5391 13.1602 16.5156 12.0508 17.2031C10.9492 17.8906 9.68359 18.2344 8.25391 18.2344C6.83984 18.2344 5.57812 17.8945 4.46875 17.2148C3.35938 16.5352 2.5 15.5664 1.89062 14.3086C1.28125 13.043 0.972656 11.5898 0.964844 9.94922V9.10547C0.964844 7.42578 1.26562 5.94922 1.86719 4.67578C2.47656 3.39453 3.33203 2.41406 4.43359 1.73438C5.54297 1.04687 6.80859 0.703125 8.23047 0.703125C9.65234 0.703125 10.9141 1.04687 12.0156 1.73438C13.125 2.41406 13.9805 3.39453 14.582 4.67578C15.1914 5.94922 15.4961 7.42188 15.4961 9.09375V9.85547ZM11.9336 9.08203C11.9336 7.29297 11.6133 5.93359 10.9727 5.00391C10.332 4.07422 9.41797 3.60938 8.23047 3.60938C7.05078 3.60938 6.14062 4.07031 5.5 4.99219C4.85938 5.90625 4.53516 7.25 4.52734 9.02344V9.85547C4.52734 11.5977 4.84766 12.9492 5.48828 13.9102C6.12891 14.8711 7.05078 15.3516 8.25391 15.3516C9.43359 15.3516 10.3398 14.8906 10.9727 13.9688C11.6055 13.0391 11.9258 11.6875 11.9336 9.91406V9.08203ZM24.9531 8.49609C24.4922 8.43359 24.0859 8.40234 23.7344 8.40234C22.4531 8.40234 21.6133 8.83594 21.2148 9.70312V18H17.8281V5.32031H21.0273L21.1211 6.83203C21.8008 5.66797 22.7422 5.08594 23.9453 5.08594C24.3203 5.08594 24.6719 5.13672 25 5.23828L24.9531 8.49609ZM30.168 18H26.7695V5.32031H30.168V18ZM26.5703 2.03906C26.5703 1.53125 26.7383 1.11328 27.0742 0.785156C27.418 0.457031 27.8828 0.292969 28.4688 0.292969C29.0469 0.292969 29.5078 0.457031 29.8516 0.785156C30.1953 1.11328 30.3672 1.53125 30.3672 2.03906C30.3672 2.55469 30.1914 2.97656 29.8398 3.30469C29.4961 3.63281 29.0391 3.79688 28.4688 3.79688C27.8984 3.79688 27.4375 3.63281 27.0859 3.30469C26.7422 2.97656 26.5703 2.55469 26.5703 2.03906ZM42.0391 13.5234C42.0391 12.8594 41.8047 12.3516 41.3359 12C40.8672 11.6406 40.0234 11.2656 38.8047 10.875C37.5859 10.4766 36.6211 10.0859 35.9102 9.70312C33.9727 8.65625 33.0039 7.24609 33.0039 5.47266C33.0039 4.55078 33.2617 3.73047 33.7773 3.01172C34.3008 2.28516 35.0469 1.71875 36.0156 1.3125C36.9922 0.90625 38.0859 0.703125 39.2969 0.703125C40.5156 0.703125 41.6016 0.925781 42.5547 1.37109C43.5078 1.80859 44.2461 2.42969 44.7695 3.23438C45.3008 4.03906 45.5664 4.95312 45.5664 5.97656H42.0508C42.0508 5.19531 41.8047 4.58984 41.3125 4.16016C40.8203 3.72266 40.1289 3.50391 39.2383 3.50391C38.3789 3.50391 37.7109 3.6875 37.2344 4.05469C36.7578 4.41406 36.5195 4.89062 36.5195 5.48438C36.5195 6.03906 36.7969 6.50391 37.3516 6.87891C37.9141 7.25391 38.7383 7.60547 39.8242 7.93359C41.8242 8.53516 43.2812 9.28125 44.1953 10.1719C45.1094 11.0625 45.5664 12.1719 45.5664 13.5C45.5664 14.9766 45.0078 16.1367 43.8906 16.9805C42.7734 17.8164 41.2695 18.2344 39.3789 18.2344C38.0664 18.2344 36.8711 17.9961 35.793 17.5195C34.7148 17.0352 33.8906 16.375 33.3203 15.5391C32.7578 14.7031 32.4766 13.7344 32.4766 12.6328H36.0039C36.0039 14.5156 37.1289 15.457 39.3789 15.457C40.2148 15.457 40.8672 15.2891 41.3359 14.9531C41.8047 14.6094 42.0391 14.1328 42.0391 13.5234ZM51.3086 18H47.9102V5.32031H51.3086V18ZM47.7109 2.03906C47.7109 1.53125 47.8789 1.11328 48.2148 0.785156C48.5586 0.457031 49.0234 0.292969 49.6094 0.292969C50.1875 0.292969 50.6484 0.457031 50.9922 0.785156C51.3359 1.11328 51.5078 1.53125 51.5078 2.03906C51.5078 2.55469 51.332 2.97656 50.9805 3.30469C50.6367 3.63281 50.1797 3.79688 49.6094 3.79688C49.0391 3.79688 48.5781 3.63281 48.2266 3.30469C47.8828 2.97656 47.7109 2.55469 47.7109 2.03906ZM60.9766 14.4961C60.9766 14.082 60.7695 13.7578 60.3555 13.5234C59.9492 13.2812 59.293 13.0664 58.3867 12.8789C55.3711 12.2461 53.8633 10.9648 53.8633 9.03516C53.8633 7.91016 54.3281 6.97266 55.2578 6.22266C56.1953 5.46484 57.418 5.08594 58.9258 5.08594C60.5352 5.08594 61.8203 5.46484 62.7812 6.22266C63.75 6.98047 64.2344 7.96484 64.2344 9.17578H60.8477C60.8477 8.69141 60.6914 8.29297 60.3789 7.98047C60.0664 7.66016 59.5781 7.5 58.9141 7.5C58.3438 7.5 57.9023 7.62891 57.5898 7.88672C57.2773 8.14453 57.1211 8.47266 57.1211 8.87109C57.1211 9.24609 57.2969 9.55078 57.6484 9.78516C58.0078 10.0117 58.6094 10.2109 59.4531 10.3828C60.2969 10.5469 61.0078 10.7344 61.5859 10.9453C63.375 11.6016 64.2695 12.7383 64.2695 14.3555C64.2695 15.5117 63.7734 16.4492 62.7812 17.168C61.7891 17.8789 60.5078 18.2344 58.9375 18.2344C57.875 18.2344 56.9297 18.0469 56.1016 17.6719C55.2812 17.2891 54.6367 16.7695 54.168 16.1133C53.6992 15.4492 53.4648 14.7344 53.4648 13.9688H56.6758C56.707 14.5703 56.9297 15.0312 57.3438 15.3516C57.7578 15.6719 58.3125 15.832 59.0078 15.832C59.6562 15.832 60.1445 15.7109 60.4727 15.4688C60.8086 15.2188 60.9766 14.8945 60.9766 14.4961ZM70.5156 2.20312V5.32031H72.6836V7.80469H70.5156V14.1328C70.5156 14.6016 70.6055 14.9375 70.7852 15.1406C70.9648 15.3438 71.3086 15.4453 71.8164 15.4453C72.1914 15.4453 72.5234 15.418 72.8125 15.3633V17.9297C72.1484 18.1328 71.4648 18.2344 70.7617 18.2344C68.3867 18.2344 67.1758 17.0352 67.1289 14.6367V7.80469H65.2773V5.32031H67.1289V2.20312H70.5156ZM80.4062 18.2344C78.5469 18.2344 77.0312 17.6641 75.8594 16.5234C74.6953 15.3828 74.1133 13.8633 74.1133 11.9648V11.6367C74.1133 10.3633 74.3594 9.22656 74.8516 8.22656C75.3438 7.21875 76.0391 6.44531 76.9375 5.90625C77.8438 5.35938 78.875 5.08594 80.0312 5.08594C81.7656 5.08594 83.1289 5.63281 84.1211 6.72656C85.1211 7.82031 85.6211 9.37109 85.6211 11.3789V12.7617H77.5469C77.6562 13.5898 77.9844 14.2539 78.5312 14.7539C79.0859 15.2539 79.7852 15.5039 80.6289 15.5039C81.9336 15.5039 82.9531 15.0312 83.6875 14.0859L85.3516 15.9492C84.8438 16.668 84.1562 17.2305 83.2891 17.6367C82.4219 18.0352 81.4609 18.2344 80.4062 18.2344ZM80.0195 7.82812C79.3477 7.82812 78.8008 8.05469 78.3789 8.50781C77.9648 8.96094 77.6992 9.60938 77.582 10.4531H82.293V10.1836C82.2773 9.43359 82.0742 8.85547 81.6836 8.44922C81.293 8.03516 80.7383 7.82812 80.0195 7.82812ZM90.7305 5.32031L90.8359 6.73828C91.7344 5.63672 92.9492 5.08594 94.4805 5.08594C96.1133 5.08594 97.2344 5.73047 97.8438 7.01953C98.7344 5.73047 100.004 5.08594 101.652 5.08594C103.027 5.08594 104.051 5.48828 104.723 6.29297C105.395 7.08984 105.73 8.29297 105.73 9.90234V18H102.332V9.91406C102.332 9.19531 102.191 8.67188 101.91 8.34375C101.629 8.00781 101.133 7.83984 100.422 7.83984C99.4062 7.83984 98.7031 8.32422 98.3125 9.29297L98.3242 18H94.9375V9.92578C94.9375 9.19141 94.793 8.66016 94.5039 8.33203C94.2148 8.00391 93.7227 7.83984 93.0273 7.83984C92.0664 7.83984 91.3711 8.23828 90.9414 9.03516V18H87.5547V5.32031H90.7305Z" fill="#335EEA"/>
</g>
</svg>
